<?xml version="1.0" encoding="UTF-8" standalone="no"?>
<svg
   width="800px"
   height="800px"
   viewBox="0 0 24 24"
   version="1.1"
   id="svg139"
   sodipodi:docname="checkbox-checked.svg"
   inkscape:version="1.2.2 (b0a84865, 2022-12-01)"
   xmlns:inkscape="http://www.inkscape.org/namespaces/inkscape"
   xmlns:sodipodi="http://sodipodi.sourceforge.net/DTD/sodipodi-0.dtd"
   xmlns="http://www.w3.org/2000/svg"
   xmlns:svg="http://www.w3.org/2000/svg">
  <defs
     id="defs143" />
  <sodipodi:namedview
     id="namedview141"
     pagecolor="#ffffff"
     bordercolor="#000000"
     borderopacity="0.25"
     inkscape:showpageshadow="2"
     inkscape:pageopacity="0.0"
     inkscape:pagecheckerboard="0"
     inkscape:deskcolor="#d1d1d1"
     showgrid="false"
     inkscape:zoom="0.295"
     inkscape:cx="-174.57627"
     inkscape:cy="400"
     inkscape:window-width="1309"
     inkscape:window-height="456"
     inkscape:window-x="0"
     inkscape:window-y="38"
     inkscape:window-maximized="0"
     inkscape:current-layer="svg139" />
  <!-- Uploaded to: SVG Repo, www.svgrepo.com, Generator: SVG Repo Mixer Tools -->
  <title
     id="title132">ic_fluent_checkbox_checked_24_filled</title>
  <desc
     id="desc134">Created with Sketch.</desc>
  <g
     id="ðŸ”-Product-Icons"
     stroke="none"
     stroke-width="1"
     fill="none"
     fill-rule="evenodd"
     style="fill:#00ca4e;fill-opacity:1">
    <g
       id="ic_fluent_checkbox_checked_24_filled"
       fill="#F29F05"
       fill-rule="nonzero"
       style="fill:#00ca4e;fill-opacity:1">
      <path
         d="M18,3 C19.6568542,3 21,4.34314575 21,6 L21,18 C21,19.6568542 19.6568542,21 18,21 L6,21 C4.34314575,21 3,19.6568542 3,18 L3,6 C3,4.34314575 4.34314575,3 6,3 L18,3 Z M16.4696699,7.96966991 L10,14.4393398 L7.53033009,11.9696699 C7.23743687,11.6767767 6.76256313,11.6767767 6.46966991,11.9696699 C6.1767767,12.2625631 6.1767767,12.7374369 6.46966991,13.0303301 L9.46966991,16.0303301 C9.76256313,16.3232233 10.2374369,16.3232233 10.5303301,16.0303301 L17.5303301,9.03033009 C17.8232233,8.73743687 17.8232233,8.26256313 17.5303301,7.96966991 C17.2374369,7.6767767 16.7625631,7.6767767 16.4696699,7.96966991 Z"
         id="ðŸŽ¨-Color"
         style="fill:#00ca4e;fill-opacity:1" />
    </g>
  </g>
</svg>
