<?xml version="1.0" encoding="UTF-8" standalone="no"?>
<svg
   width="800px"
   height="800px"
   viewBox="0 0 24 24"
   version="1.1"
   id="svg456"
   sodipodi:docname="checkbox_checked_neg.svg"
   inkscape:version="1.2.2 (b0a84865, 2022-12-01)"
   xmlns:inkscape="http://www.inkscape.org/namespaces/inkscape"
   xmlns:sodipodi="http://sodipodi.sourceforge.net/DTD/sodipodi-0.dtd"
   xmlns="http://www.w3.org/2000/svg"
   xmlns:svg="http://www.w3.org/2000/svg">
  <defs
     id="defs460" />
  <sodipodi:namedview
     id="namedview458"
     pagecolor="#ffffff"
     bordercolor="#000000"
     borderopacity="0.25"
     inkscape:showpageshadow="2"
     inkscape:pageopacity="0.0"
     inkscape:pagecheckerboard="0"
     inkscape:deskcolor="#d1d1d1"
     showgrid="false"
     inkscape:zoom="0.28754083"
     inkscape:cx="236.48815"
     inkscape:cy="770.32539"
     inkscape:window-width="1512"
     inkscape:window-height="945"
     inkscape:window-x="0"
     inkscape:window-y="37"
     inkscape:window-maximized="0"
     inkscape:current-layer="svg456" />
  <!-- Uploaded to: SVG Repo, www.svgrepo.com, Generator: SVG Repo Mixer Tools -->
  <title
     id="title449">ic_fluent_checkbox_unchecked_24_regular</title>
  <desc
     id="desc451">Created with Sketch.</desc>
  <path
     id="path4280"
     style="display:inline;fill:#ff605c;stroke-width:4.19502;stroke-linecap:round;stroke-linejoin:round;stroke-dashoffset:0.87685;stroke:none;stroke-dasharray:none;fill-opacity:1"
     d="M 5.5932422 3 C 4.1565996 3 3 4.1565996 3 5.5932422 L 3 18.406758 C 3 19.8434 4.1565996 21 5.5932422 21 L 18.406758 21 C 19.8434 21 21 19.8434 21 18.406758 L 21 5.5932422 C 21 4.1565996 19.8434 3 18.406758 3 L 5.5932422 3 z M 7.436543 6.6370312 A 0.80005503 0.80005503 0 0 1 8.0019727 6.8711133 L 12 10.869141 L 15.998027 6.8711133 A 0.80005503 0.80005503 0 0 1 17.128887 6.8711133 A 0.80005503 0.80005503 0 0 1 17.128887 8.0019727 L 13.130859 12 L 17.128887 15.998027 A 0.80005503 0.80005503 0 0 1 17.128887 17.128887 A 0.80005503 0.80005503 0 0 1 15.998027 17.128887 L 12 13.130859 L 8.0019727 17.128887 A 0.80005503 0.80005503 0 0 1 6.8711133 17.128887 A 0.80005503 0.80005503 0 0 1 6.8711133 15.998027 L 10.869141 12 L 6.8711133 8.0019727 A 0.80005503 0.80005503 0 0 1 6.8711133 6.8711133 A 0.80005503 0.80005503 0 0 1 7.436543 6.6370312 z " />
</svg>
